<svg xmlns="http://www.w3.org/2000/svg" width="200" height="200" viewBox="0 0 200 200">
  <g id="그룹_62543" data-name="그룹 62543" transform="translate(0.294 -0.293)">
    <rect id="사각형_17044" data-name="사각형 17044" width="200" height="200" rx="12" transform="translate(-0.294 0.293)" fill="#4f57fb"/>
    <g id="그룹_61267" data-name="그룹 61267" transform="translate(35.09 35.678)">
      <path id="패스_11539" data-name="패스 11539" d="M23.618.806q.378.165.753.334h0q.328.148.655.3h0l.046.021h0l.044.021,0,0,.043.02h0l.043.02,0,0,.042.02,0,0,.042.02,0,0,.043.02h0l.044.021h0l.417.2h0l.043.021.046.022.045.022L26,1.9l.045.022.046.022.046.022.007,0,.041.02,0,0,.041.02.005,0,.229.113h0l.044.022.046.023L26.6,2.2l.045.023.045.022.045.023.044.022.045.023.045.023.047.023.045.023.048.024.01.005.041.021h0l.182.093.006,0,.039.02.044.022.045.023.045.023.045.023.044.023.045.023L27.6,2.7l.044.023.043.023.044.023.046.024.046.024.045.024.014.007.088.046.044.023.043.023.045.024.043.023.044.024.044.024.045.024.043.023.044.024.043.023.045.024.044.024.045.024.043.024.044.024.1.053.041.022.043.024.041.022.042.023.042.023.044.024.043.024.044.024.043.024.044.024.043.024.01.006.034.019.007,0,.035.02.007,0,.289.162h0l.038.022,0,0,.039.022h0l.038.022.005,0,.037.021.005,0,.036.021.007,0,.037.021,0,0,.038.022,0,0,.038.022,0,0,.038.022,0,0q2.61,1.5,5.06,3.235L17.983,31.306a34.419,34.419,0,0,0-6.133-3.458ZM44.873,15.837q1.151,1.232,2.236,2.525h0l.031.037,0,0,.028.034.005.006.028.033,0,.005.028.033.006.007.026.032.006.007.026.031.007.009.027.033,0,.005.03.036,0,0,.128.155.011.014.02.025.014.017.016.02.032.039.031.037.017.021.032.039.031.038.013.016.019.023.011.013.021.026.009.011.022.028.006.007.025.031,0,0q1.6,1.974,3.043,4.076h0l.025.037,0,0,.023.034.005.008.022.033.005.008.022.032.005.008.022.033.005.008.021.031.008.011.02.029.007.01.02.03.008.012.019.028.01.014.018.026.019.028.02.03.016.024.012.017.016.024.012.017.017.025.01.014.018.027.009.014.019.029.008.012.02.03.008.011.021.032.006.009.022.033.006.009.023.034.005.008.024.036,0,.005q.68,1.025,1.32,2.078L27.592,41.6a34.758,34.758,0,0,0-4.275-5.633ZM58.4,38.077q.879,2.477,1.557,5.045h0l.013.049h0l.013.048v0l.012.046v0l.012.046v0l.012.046v0l.012.046v0l.012.046v0l.011.044,0,.006.011.045v0l.011.045v.005l.011.045v0l.011.043,0,.008.011.045v0l.012.047v0l.074.3,0,.012.009.037,0,.014.008.034,0,.017.008.033,0,.018.007.03.005.022.007.028.005.022.006.027.006.024.006.025.006.025.006.023.006.026.006.023.006.025.006.023.006.026.006.023.006.027,0,.021.007.029,0,.021.007.029,0,.02.007.029,0,.019.007.031,0,.016.008.033,0,.016.007.032,0,.017.007.032,0,.016.008.034,0,.011.009.039,0,.008.009.041v.006l.01.043v0q.624,2.743,1.009,5.572L32.261,54.755a34.133,34.133,0,0,0-1.651-6.816Z" transform="translate(65.812 4.475)" fill="#fff"/>
      <path id="합치기_14" data-name="합치기 14" d="M98.4,127.913V117.856A63.962,63.962,0,1,1,55.392.569v0C56.1.472,56.813.384,57.533.313c.03,0,.059-.006.094-.006s.065-.006.1-.012.065-.006.094-.012a.26.26,0,0,0,.065-.006h.035c.018,0,.035-.006.053-.006a.12.12,0,0,0,.047-.007h.047A.174.174,0,0,1,58.123.26c.018,0,.03-.006.047-.006a.149.149,0,0,0,.053-.007h.041a.174.174,0,0,1,.053-.006c.018,0,.03-.007.047-.007a.175.175,0,0,0,.053-.006h.047a.174.174,0,0,1,.053-.006.118.118,0,0,0,.047-.007h.053a.173.173,0,0,1,.053-.006c.012,0,.029-.006.047-.006A.148.148,0,0,0,58.772.2h.047c.018,0,.035-.006.053-.006a.119.119,0,0,0,.047-.007h.053c.018,0,.029-.006.047-.006a.16.16,0,0,0,.053-.006.564.564,0,0,0,.1-.006c.035,0,.065-.006.1-.006a.649.649,0,0,1,.1-.006c.849-.059,1.7-.106,2.554-.13.071,0,.136-.006.206-.006a.175.175,0,0,0,.053-.006.136.136,0,0,0,.047,0h.153c.041,0,.071-.007.106-.007H62.7a.581.581,0,0,1,.1-.006h.206c.035,0,.065-.007.1-.007H64.8c.018,0,.035.007.053.007h.313a.122.122,0,0,0,.047.006h.206c.018,0,.035.007.053.007h.206a.175.175,0,0,0,.053.006h.153a.16.16,0,0,0,.053.006h.153a.16.16,0,0,0,.053.006h.106A.113.113,0,0,0,66.3.042H66.4a.156.156,0,0,0,.053.006h.1a.148.148,0,0,0,.053.007h.047a.155.155,0,0,1,.053.006h.106c.018,0,.03.007.047.007h.106a.157.157,0,0,0,.047.006h.053c.018,0,.035.006.053.006h.053a.118.118,0,0,1,.047.007h.106a.156.156,0,0,0,.053.006h.047a.175.175,0,0,0,.053.006h.053c.018,0,.03.007.047.007h.053a.174.174,0,0,0,.053.006h.047a.166.166,0,0,0,.053.007h.053a65.212,65.212,0,0,1,7.019.814c.012,0,.03.006.047.006s.035.007.047.012a.149.149,0,0,0,.053.007c.018.006.029.006.047.011s.03.007.047.007.03.006.047.011.035.007.053.007.029.006.047.012S75.281,1,75.3,1s.035.006.047.012.035.006.053.006.029.006.047.012.029.006.047.006.035.006.053.012.03.006.047.006.03.007.047.012.03.006.047.006.035.007.053.012.03.006.047.006a.324.324,0,0,0,.047.012c.018,0,.03.007.047.007s.035.006.053.011.029.007.047.007a.147.147,0,0,0,.047.012c.018.006.035.006.047.012s.035.006.053.006a.411.411,0,0,0,.047.012c.018,0,.029.007.047.007a.193.193,0,0,0,.047.011c.018.007.035.007.053.012s.03.007.047.007.035.006.047.011.035.007.047.012.035.006.053.006.03.007.047.012a.119.119,0,0,0,.047.007.184.184,0,0,0,.053.011.32.32,0,0,0,.047.012.136.136,0,0,1,.047.012l.1.018.094.018L70.987,30.207a34.571,34.571,0,0,0-7.031-.714v.023A34.438,34.438,0,1,0,98.4,63.957h29.516v63.956Z" transform="translate(0 0)" fill="#fff" stroke="rgba(0,0,0,0)" stroke-miterlimit="10" stroke-width="1"/>
    </g>
  </g>
</svg>
