<?xml version="1.0" encoding="utf-8"?>
<!-- Generator: Adobe Illustrator 23.0.0, SVG Export Plug-In . SVG Version: 6.00 Build 0)  -->
<svg version="1.1" id="Layer_1" xmlns="http://www.w3.org/2000/svg" xmlns:xlink="http://www.w3.org/1999/xlink" x="0px" y="0px"
	 viewBox="0 0 188.9 188.9" style="enable-background:new 0 0 188.9 188.9;" xml:space="preserve">
<style type="text/css">
	.st0{fill:none;}
	.st1{fill:#00AFD8;}
	.st2{fill:#46C6EA;}
	.st3{fill:#2C4E9C;}
	.st4{fill:#268AC9;}
	.st5{fill:#1F6EB7;}
	.st6{fill:#9FDCF1;}
	.st7{fill:#223F82;}
	.st8{fill:#1E204F;}
	.st9{fill:#1C96CE;}
	.st10{fill:#44AAD9;}
	.st11{fill:#EEF9FE;}
</style>
<rect y="0" class="st0" width="188.9" height="188.9"/>
<g>
	<polygon class="st1" points="30.9,116 114.5,79.4 131.3,41.5 	"/>
	<polygon class="st2" points="61.5,52.6 131.3,41.5 30.9,116 	"/>
	<polygon class="st3" points="114.5,79.4 97.1,160.5 30.9,116 	"/>
	<polygon class="st4" points="131.3,41.5 160.8,98.7 114.4,79.4 	"/>
	<polygon class="st5" points="160.8,98.7 97.1,160.5 114.5,79.4 	"/>
	<polygon class="st6" points="61.5,52.6 85.2,36.9 131.3,41.5 	"/>
	<polygon class="st7" points="160.8,98.7 106.6,116 97.1,160.5 	"/>
	<polygon class="st8" points="30.9,116 97.1,160.5 106.6,116 	"/>
	<polygon class="st9" points="114.5,79.4 92.1,70.6 30.9,116 	"/>
	<polygon class="st10" points="92.1,70.6 59.3,57.1 30.9,116 	"/>
	<polygon class="st11" points="147.4,93.1 115.7,78.9 129.4,45.9 114,78.1 71.9,62.2 112.1,79.4 45.2,109.7 113.1,81 101.9,137.8 
		115,80.7 	"/>
</g>
</svg>
