<?xml version="1.0" encoding="utf-8"?>
<!-- Generator: Adobe Illustrator 19.0.0, SVG Export Plug-In . SVG Version: 6.00 Build 0)  -->
<svg version="1.1" id="Layer_1" xmlns="http://www.w3.org/2000/svg" xmlns:xlink="http://www.w3.org/1999/xlink" x="0px" y="0px"
	 viewBox="0 0 924.6 926.3" style="enable-background:new 0 0 924.6 926.3;" xml:space="preserve">
<style type="text/css">
	.st0{fill:#253068;}
	.st1{fill:#FFFFFF;}
	.st2{fill:#CDCCCC;}
</style>
<g id="XMLID_1_">
	<path id="XMLID_58_" class="st0" d="M928.1,463.1c0,12.4-0.5,24.8-1.5,37v391.7c0,0-13.1,43.5-59.5,20.3L738.4,837
		c-76.6,56.1-171.2,89.3-273.4,89.3C209.1,926.3,1.8,718.9,1.8,463.1C1.8,207.4,209.1,0,464.9,0C720.7,0,928.1,207.4,928.1,463.1z"
		/>
	<polygon id="XMLID_57_" class="st1" points="684.6,343.6 684.6,343.7 475.5,468.1 475.4,468.1 250.9,339.1 466.2,218.2 	"/>
	<polygon id="XMLID_46_" class="st2" points="684.6,343.7 684.6,588.2 475.5,468.1 475.5,468.1 	"/>
	<polygon id="XMLID_42_" class="st2" points="475.5,468.1 475.5,708.8 269.5,590.5 250.5,579.6 250.5,339.3 250.9,339.1 
		475.4,468.1 	"/>
</g>
</svg>
