<svg width="100" height="100" viewBox="0 0 100 100" fill="none" xmlns="http://www.w3.org/2000/svg">
<circle cx="50" cy="50" r="49.5" fill="#010101" stroke="black"/>
<path d="M39.3455 25.0838C39.308 25.0312 39.2474 25 39.1828 25H25.3886C25.226 25 25.1313 25.1839 25.2259 25.3162L60.6545 74.9162C60.692 74.9688 60.7526 75 60.8172 75H74.6114C74.774 75 74.8687 74.8161 74.7741 74.6838L39.3455 25.0838Z" fill="white"/>
<path d="M46.2212 64.5966C46.3098 64.4637 46.2145 64.2857 46.0548 64.2857H32.2498C32.1829 64.2857 32.1205 64.3191 32.0834 64.3748L25.2072 74.6891C25.1186 74.822 25.2139 75 25.3736 75H39.1786C39.2455 75 39.3079 74.9666 39.345 74.9109L46.2212 64.5966Z" fill="#E3030B"/>
<path d="M74.7927 25.3109C74.8813 25.178 74.786 25 74.6263 25H60.8213C60.7544 25 60.692 25.0334 60.6549 25.0891L53.7787 35.4033C53.6901 35.5363 53.7854 35.7143 53.9451 35.7143H67.7501C67.817 35.7143 67.8794 35.6809 67.9165 35.6252L74.7927 25.3109Z" fill="#E3030B"/>
</svg>
