<svg width="48" height="48" viewBox="0 0 48 48" xmlns="http://www.w3.org/2000/svg" xmlns:xlink="http://www.w3.org/1999/xlink">
    <defs>
        <linearGradient x1="0%" y1="100%" x2="100%" y2="100%" id="c">
            <stop stop-color="#EE7F75" offset="0%"/>
            <stop stop-color="#D94940" offset="100%"/>
        </linearGradient>
        <linearGradient x1="0%" y1="100%" x2="100%" y2="100%" id="d">
            <stop stop-color="#F5D540" offset="0%"/>
            <stop stop-color="#DBA11A" offset="100%"/>
        </linearGradient>
        <circle id="a" cx="24" cy="24" r="24"/>
    </defs>
    <g fill="none" fill-rule="evenodd">
        <mask id="b" fill="#fff">
            <use xlink:href="#a"/>
        </mask>
        <use fill="#FFF" xlink:href="#a"/>
        <g mask="url(#b)">
            <path fill="url(#c)" d="M12.905 3.38v9.832H3.073z" transform="translate(13.921 12.632)"/>
            <path fill="url(#d)" d="M3.073 13.212h9.832v9.832z" transform="translate(13.921 12.632)"/>
            <path d="M24.101 12.632h-9.45a.73.73 0 0 0-.73.73v9.45a.365.365 0 0 0 .623.258l9.815-9.816a.365.365 0 0 0-.258-.622z" fill="#33408F" fill-rule="nonzero"/>
            <path d="M35.718 16.011h-8.892v9.833l9.168-9.168a.39.39 0 0 0-.276-.665z" fill="#F25148" fill-rule="nonzero"/>
            <path d="M35.718 35.676h-8.892v-9.832l9.168 9.167a.39.39 0 0 1-.276.665z" fill="#F0AD26" fill-rule="nonzero"/>
            <path d="M21.067 35.728h-6.66a.486.486 0 0 1-.486-.487v-6.66a.243.243 0 0 1 .415-.171l6.903 6.903a.243.243 0 0 1-.172.415z" fill="#42B8AE" fill-rule="nonzero"/>
        </g>
    </g>
</svg>
