<?xml version="1.0" standalone="no"?>
<!DOCTYPE svg PUBLIC "-//W3C//DTD SVG 20010904//EN"
 "http://www.w3.org/TR/2001/REC-SVG-20010904/DTD/svg10.dtd">
<svg version="1.0" xmlns="http://www.w3.org/2000/svg"
 width="150.000000pt" height="150.000000pt" viewBox="0 0 150.000000 150.000000"
 preserveAspectRatio="xMidYMid meet">

<g transform="translate(0.000000,150.000000) scale(0.100000,-0.100000)"
fill="#000000" stroke="none">
<path d="M633 1275 c-192 -42 -362 -211 -408 -406 -93 -394 275 -753 667 -650
l67 17 11 -27 c41 -98 193 -152 295 -104 178 85 184 316 12 420 -16 9 -16 14
-2 60 25 80 30 199 11 279 -69 294 -358 475 -653 411z m-67 -336 c16 -17 55
-53 87 -80 50 -42 64 -49 102 -49 40 0 52 6 112 59 38 32 77 68 87 80 14 16
30 21 65 21 l46 -1 -99 -95 c-54 -52 -112 -102 -128 -110 -38 -20 -128 -20
-166 0 -16 8 -74 58 -128 110 l-99 95 46 1 c38 0 50 -5 75 -31z m272 -259 c20
-11 75 -55 121 -99 l84 -78 -26 -18 -27 -17 -92 83 c-90 83 -92 84 -143 84
-50 0 -53 -1 -142 -82 -85 -78 -93 -83 -134 -83 l-44 1 100 95 c55 52 116 103
135 114 47 25 120 26 168 0z m410 -240 c18 -11 41 -34 52 -52 24 -40 27 -88 5
-88 -8 0 -15 9 -15 20 0 12 -7 34 -15 50 -16 32 -61 60 -95 60 -11 0 -20 7
-20 15 0 22 48 19 88 -5z m-13 -65 c19 -18 25 -35 25 -65 0 -56 -34 -90 -90
-90 -55 0 -90 34 -90 88 0 82 98 125 155 67z m-180 -24 c7 -12 -12 -24 -25
-16 -11 7 -4 25 10 25 5 0 11 -4 15 -9z m-5 -51 c0 -53 57 -110 110 -110 12 0
20 -7 20 -16 0 -25 -75 -12 -107 18 -48 45 -73 128 -38 128 8 0 15 -9 15 -20z
m265 -19 c7 -12 -12 -24 -25 -16 -11 7 -4 25 10 25 5 0 11 -4 15 -9z"/>
<path d="M1137 342 c-22 -24 -21 -45 1 -65 24 -22 45 -21 65 1 22 24 21 45 -1
65 -24 22 -45 21 -65 -1z"/>
</g>
</svg>
