<?xml version="1.0" encoding="utf-8"?>
<!-- Generator: Adobe Illustrator 26.3.1, SVG Export Plug-In . SVG Version: 6.00 Build 0)  -->
<svg version="1.1" id="레이어_1" xmlns="http://www.w3.org/2000/svg" xmlns:xlink="http://www.w3.org/1999/xlink" x="0px"
	 y="0px" viewBox="0 0 500 500" style="enable-background:new 0 0 500 500;" xml:space="preserve">
<style type="text/css">
	.st0{fill:#7553FF;}
</style>
<g>
	<path class="st0" d="M418.72,265.5c-29-8.16-46.41-39.25-38.97-67.83c10.45-34.32-15.68-69.34-51.4-69.17
		c-35.72-0.17-61.86,34.86-51.4,69.17c13.85,51.33-53.08,56.56-55.54,16.09c-0.25-5.33,0.27-10.75,1.64-16.09
		c10.45-34.32-15.68-69.34-51.4-69.17c-35.72-0.17-61.86,34.86-51.4,69.17c7.44,28.58-9.97,59.66-38.97,67.83
		c-64.81,17.03-49.47,110.38,17.59,105.71c33.36-3.34,55.35-36.69,46.01-68.33l0.03,0.02c-14.29-52.41,53.34-56.5,55.23-16.4
		c0.23,5.4-0.38,11.12-1.78,16.4l0.03-0.02c-10.24,33.84,16.51,69.1,51.59,68.6c35.08,0.5,61.84-34.77,51.59-68.6l0.03,0.02
		c-14.29-52.41,53.34-56.5,55.23-16.4c0.23,5.4-0.38,11.12-1.78,16.4l0.03-0.02c-9.33,31.64,12.65,64.98,46.02,68.33
		C468.2,375.87,483.51,282.52,418.72,265.5z"/>
</g>
</svg>
