<svg width="24" height="24" viewBox="0 0 24 24" fill="none" xmlns="http://www.w3.org/2000/svg">
<rect width="24" height="24" fill="#92A3F9"/>
<path d="M6.86558 14.7053C6.88526 13.7361 7.0543 12.8693 7.69431 12.1573C8.44603 11.3209 9.39595 11.0491 10.4829 11.1777C10.9288 11.2306 11.3713 11.3112 11.817 11.3667C12.7261 11.4799 13.4616 10.8928 13.575 9.97191C13.6734 9.17275 13.04 8.42229 12.1661 8.34948C11.5503 8.2981 11.0451 8.5959 10.5973 8.9816C10.3099 9.229 10.0568 9.51584 9.78044 9.77638C8.84534 10.6569 7.32804 10.3038 6.95229 9.10944C6.7439 8.44688 6.87578 7.83448 7.37807 7.34554C7.87963 6.85733 8.48927 6.75238 9.15258 6.95862C9.2563 6.99076 9.35879 7.03727 9.45133 7.09376C10.6871 7.84934 11.9771 7.84982 13.3091 7.39326C13.7324 7.24814 14.1298 7.03629 14.5689 6.93256C15.8501 6.63014 17.1406 7.25885 17.7475 8.48949C18.2812 9.57136 17.9438 11.009 16.9805 11.7994C16.1792 12.4568 15.2706 12.5501 14.2993 12.3346C13.6756 12.196 13.0489 12.0784 12.4116 12.0185C12.0597 11.9854 11.7094 12.0005 11.3677 12.076C10.4479 12.2793 10.0185 13.1062 10.275 14.1289C10.3957 14.6103 10.6475 15.0272 10.8707 15.4608C11.3303 16.3538 11.0371 17.3874 10.1865 17.8048C9.53853 18.1228 8.88274 18.0317 8.26897 17.6842C7.45579 17.224 7.11163 16.4504 6.94598 15.5804C6.8889 15.277 6.88793 14.9631 6.86558 14.7053Z" fill="#111111"/>
</svg>
