<?xml version="1.0" encoding="utf-8"?>
<!-- Generator: Adobe Illustrator 26.0.2, SVG Export Plug-In . SVG Version: 6.00 Build 0)  -->
<svg version="1.1" id="레이어_1" xmlns="http://www.w3.org/2000/svg" xmlns:xlink="http://www.w3.org/1999/xlink" x="0px"
	 y="0px" viewBox="0 0 33.29 33.29" style="enable-background:new 0 0 33.29 33.29;" xml:space="preserve">
<style type="text/css">
	.st0{opacity:0.3;}
	.st1{fill:#E85656;}
	.st2{fill:#FFFFFF;}
	.st3{fill:#EA4E4E;}
	.st4{opacity:0.2;}
</style>
<g>
	<g>
		<polygon class="st2" points="4.71,20.26 20.5,28.15 16.59,30.41 4.71,23.55 		"/>
		<polygon class="st2" points="28.76,9.67 28.76,10.86 13.98,4.14 16.59,2.63 		"/>
		<polygon class="st2" points="12.06,5.24 28.76,12.82 28.76,14.74 11.37,21.56 4.4,18.08 4.4,9.67 		"/>
		<polygon class="st2" points="13.53,22.65 28.76,16.68 28.76,23.73 22.69,27.23 		"/>
		<path class="st4" d="M30.11,8.45L17.02,0.9c-0.24-0.14-0.52-0.14-0.76,0L3.18,8.45C2.96,8.59,2.8,8.84,2.8,9.11v15.1
			c0,0.27,0.15,0.52,0.38,0.66l13.09,7.55c0.11,0.07,0.25,0.11,0.38,0.11c0.13,0,0.27-0.04,0.38-0.11l13.09-7.55
			c0.24-0.14,0.38-0.39,0.38-0.66V9.11C30.49,8.84,30.35,8.59,30.11,8.45z M16.59,2.63l12.17,7.04v1.19L13.98,4.14L16.59,2.63z
			 M4.4,9.67l7.66-4.43l16.7,7.59v1.92l-17.39,6.82L4.4,18.08V9.67z M28.76,16.68v7.05l-6.07,3.49l-9.16-4.57L28.76,16.68z
			 M4.71,20.26l15.79,7.9l-3.91,2.26L4.71,23.55V20.26z"/>
	</g>
	<g>
		<g>
			<polygon points="28.76,16.68 28.76,23.73 22.69,27.23 13.53,22.65 			"/>
		</g>
		<g>
			<polygon points="28.76,9.67 28.76,10.86 13.98,4.14 16.59,2.63 			"/>
		</g>
		<g>
			<polygon points="28.76,12.82 28.76,14.74 11.37,21.56 4.4,18.08 4.4,9.67 12.06,5.24 			"/>
		</g>
		<g>
			<polygon points="20.5,28.15 16.59,30.41 4.71,23.55 4.71,20.26 			"/>
		</g>
	</g>
</g>
</svg>
