<svg width="24" height="24" viewBox="0 0 24 24" fill="none" xmlns="http://www.w3.org/2000/svg">
<rect width="24" height="24" fill="white"/>
<path d="M9.08112 3.57227L3.96254 8.50978L3.40918 12.0265L3.96254 15.5432L6.591 18.7505L14.6008 20.4104L19.1938 16.9499L20.591 11.6045L19.4704 8.29877L16.842 4.8383L9.08112 3.57227Z" fill="url(#paint0_linear_3789_58463)"/>
<path fill-rule="evenodd" clip-rule="evenodd" d="M13.7076 8.70117L14.6035 9.00912L14.7709 9.92981L14.0739 10.5711L13.1789 10.2634L12.9834 9.34183L13.7076 8.70117ZM13.7742 9.03552L13.3072 9.44868L13.4324 10.0391L14.0036 10.2355L14.4521 9.82288L14.3445 9.23158L13.7742 9.03552Z" fill="white"/>
<path d="M16.4903 8.89062L15.9863 9.28008L16.3758 9.76117L16.8569 9.39462L16.4903 8.89062Z" fill="white"/>
<path fill-rule="evenodd" clip-rule="evenodd" d="M16.5205 8.68164L17.061 9.42474L16.3516 9.96524L15.7773 9.25591L16.5205 8.68164ZM16.1958 9.30476L16.4005 9.55762L16.6533 9.36502L16.4607 9.10013L16.1958 9.30476Z" fill="white"/>
<path d="M10.386 7.00977L10.0068 7.74221L10.7393 8.12134L11.1184 7.38889L10.386 7.00977Z" fill="white"/>
<path fill-rule="evenodd" clip-rule="evenodd" d="M10.3231 6.81055L11.3171 7.32508L10.8026 8.3191L9.80859 7.80457L10.3231 6.81055ZM10.4493 7.20753L10.2056 7.67839L10.6764 7.92212L10.9202 7.45126L10.4493 7.20753Z" fill="white"/>
<path fill-rule="evenodd" clip-rule="evenodd" d="M5.48785 8.788C5.51524 8.77184 5.54712 8.76499 5.57873 8.76846L7.45727 8.97464C7.47921 8.97705 7.50032 8.98435 7.51905 8.99601L11.148 11.2556L15.7283 12.8801L16.8139 12.3999L17.2261 11.467C17.2352 11.4464 17.2488 11.4283 17.266 11.4138L18.1365 10.6807C18.1862 10.6389 18.2573 10.6346 18.3117 10.67C18.3661 10.7054 18.3909 10.7722 18.3728 10.8345L18.0406 11.9766L18.8012 12.3569C18.8279 12.3702 18.8498 12.3913 18.8642 12.4174L19.4599 13.4941C19.475 13.5214 19.481 13.5527 19.4772 13.5837L19.4542 13.7669C19.4481 13.8158 19.418 13.8584 19.374 13.8804L19.1449 13.9949C19.1236 14.0056 19.1 14.0109 19.0762 14.0105L17.8621 13.9875C17.8459 13.9872 17.8299 13.9843 17.8147 13.9788L16.8045 13.6134L15.6278 14.3325C15.617 14.3391 15.6054 14.3443 15.5933 14.3479L11.6988 15.5163C11.6825 15.5211 11.6656 15.5232 11.6487 15.5223L9.05994 15.3848C9.03974 15.3837 9.01998 15.3785 9.00189 15.3695L6.43607 14.0866C6.41261 14.0748 6.39271 14.0571 6.37842 14.0351L4.93515 11.8129C4.92619 11.7991 4.91961 11.7839 4.91567 11.7679L4.50331 10.0956C4.50002 10.0823 4.49862 10.0686 4.49912 10.0549L4.52203 9.43631C4.52389 9.38616 4.55116 9.3404 4.59439 9.3149L5.48785 8.788ZM5.59528 9.06659L4.8134 9.5277L4.79423 10.0451L5.1957 11.6733L6.60362 13.841L9.10618 15.0923L11.6387 15.2268L15.4905 14.0713L16.7113 13.3252C16.7495 13.3019 16.7961 13.2971 16.8382 13.3123L17.892 13.6935L19.0456 13.7153L19.1717 13.6522L19.1789 13.5947L18.6286 12.5999L17.799 12.1851C17.7353 12.1533 17.7036 12.0806 17.7234 12.0122L17.9541 11.2195L17.4818 11.6172L17.0603 12.5711C17.0455 12.6046 17.0187 12.6314 16.9851 12.6463L15.7939 13.1732C15.7594 13.1884 15.7205 13.1899 15.6851 13.1773L11.0345 11.5278C11.0245 11.5243 11.0149 11.5197 11.0059 11.514L7.39182 9.26377L5.59528 9.06659Z" fill="white"/>
<path fill-rule="evenodd" clip-rule="evenodd" d="M5.41143 9.22521C5.44105 9.22252 5.47078 9.22886 5.49672 9.24339L6.64218 9.88484C6.66046 9.89508 6.67635 9.9091 6.68878 9.92597L7.65096 11.2318C7.65246 11.2338 7.65389 11.2359 7.65528 11.238L8.4865 12.496L9.62504 13.2551L10.9026 13.9623C10.9203 13.9721 10.9357 13.9854 10.948 14.0013L12.7674 16.3666L12.8085 16.3959L12.976 16.2284L12.9979 14.9591C12.999 14.8958 13.0405 14.8402 13.101 14.8212L15.5064 14.0652C15.584 14.0408 15.6667 14.0839 15.6911 14.1615C15.7155 14.2391 15.6723 14.3218 15.5947 14.3462L13.2906 15.0704L13.2695 16.2929C13.2688 16.3311 13.2534 16.3676 13.2264 16.3945L12.9285 16.6924C12.8776 16.7433 12.7974 16.7499 12.7388 16.7081L12.5784 16.5935C12.5666 16.5851 12.5561 16.575 12.5473 16.5635L10.7332 14.2052L9.47708 13.5098C9.47354 13.5078 9.47008 13.5057 9.46671 13.5035L8.29835 12.7246C8.282 12.7137 8.268 12.6996 8.25716 12.6832L7.4116 11.4035L6.47052 10.1263L5.39264 9.52268L4.6821 9.58728C4.6011 9.59464 4.52946 9.53495 4.5221 9.45394C4.51473 9.37294 4.57443 9.30131 4.65543 9.29394L5.41143 9.22521Z" fill="white"/>
<path fill-rule="evenodd" clip-rule="evenodd" d="M11.2196 11.332C11.2513 11.4069 11.2163 11.4934 11.1414 11.5251L8.43817 12.6706C8.36328 12.7023 8.27684 12.6673 8.24511 12.5924C8.21337 12.5175 8.24836 12.4311 8.32325 12.3994L11.0265 11.2539C11.1014 11.2222 11.1878 11.2571 11.2196 11.332Z" fill="white"/>
<path fill-rule="evenodd" clip-rule="evenodd" d="M7.45591 8.97345C7.49867 8.9779 7.53735 9.0008 7.5618 9.03616L10.9523 13.9387C10.9986 14.0056 10.9819 14.0974 10.915 14.1436C10.8481 14.1899 10.7564 14.1732 10.7101 14.1063L7.41725 9.34498L6.67141 10.0516C6.61236 10.1075 6.51915 10.105 6.46321 10.0459C6.40727 9.9869 6.40979 9.89368 6.46884 9.83774L7.33938 9.01302C7.37059 8.98345 7.41316 8.969 7.45591 8.97345Z" fill="white"/>
<path fill-rule="evenodd" clip-rule="evenodd" d="M17.9974 11.989C18.0331 12.0621 18.0027 12.1503 17.9296 12.1859L17.0602 12.61L16.934 13.4723C16.9275 13.5168 16.9011 13.5558 16.8623 13.5784C16.8235 13.6009 16.7765 13.6045 16.7346 13.5882L15.7019 13.184L8.37061 12.6816C8.28946 12.676 8.22819 12.6057 8.23375 12.5246C8.23931 12.4434 8.3096 12.3822 8.39075 12.3877L15.7446 12.8917C15.7595 12.8927 15.7742 12.896 15.7882 12.9015L16.6694 13.2463L16.78 12.4904C16.7871 12.4423 16.8175 12.4007 16.8612 12.3794L17.8005 11.9212C17.8736 11.8855 17.9617 11.9159 17.9974 11.989Z" fill="white"/>
<path fill-rule="evenodd" clip-rule="evenodd" d="M10.9593 11.3109C11.0027 11.2421 11.0936 11.2215 11.1624 11.2649L15.6297 14.0827C15.6861 14.1183 15.7115 14.1873 15.6918 14.2509C15.672 14.3146 15.612 14.357 15.5454 14.3545L10.8261 14.1712C10.7449 14.168 10.6815 14.0996 10.6847 14.0183C10.6878 13.937 10.7563 13.8737 10.8376 13.8769L15.008 14.0388L11.0053 11.514C10.9365 11.4706 10.9159 11.3797 10.9593 11.3109Z" fill="white"/>
<defs>
<linearGradient id="paint0_linear_3789_58463" x1="6.49635" y1="18.9546" x2="18.3011" y2="6.30464" gradientUnits="userSpaceOnUse">
<stop offset="0.115508" stop-color="#0A167D"/>
<stop offset="0.959308" stop-color="#6D81F6"/>
</linearGradient>
</defs>
</svg>
