<svg width="40" height="40" viewBox="0 0 40 40" xmlns="http://www.w3.org/2000/svg" xmlns:xlink="http://www.w3.org/1999/xlink">
    <defs>
        <circle id="f8hf8bn2ga" cx="20" cy="20" r="20"/>
    </defs>
    <g fill="none" fill-rule="evenodd">
        <mask id="di4u18mc4b" fill="#fff">
            <use xlink:href="#f8hf8bn2ga"/>
        </mask>
        <use fill="#FFF" xlink:href="#f8hf8bn2ga"/>
        <g mask="url(#di4u18mc4b)">
            <path fill="#F55C45" d="M0 0h40v40H0z"/>
            <path d="M20.234 9.397c.382-.321.8-.614 1.21-.873l.18-.785-6.401-.921c-.099-.014-.341.13-.363.218-.941 3.795-.649 8.471.728 11.953.043.108.365.058.376-.064.184-2.035.965-6.746 4.27-9.528zM28.464 13.532c.49.095.981.236 1.44.39l.724-.353-3.313-5.554c-.05-.085-.316-.182-.397-.144-3.542 1.656-6.993 4.826-8.832 8.088-.057.101.184.32.286.251 1.698-1.137 5.851-3.495 10.092-2.678zM30.316 22.587c.227.444.418.918.579 1.375l.724.352 2.338-6.03c.036-.092-.051-.36-.131-.401-3.486-1.771-8.11-2.538-11.812-1.98-.115.017-.139.342-.022.38 1.941.638 6.357 2.459 8.324 6.304zM24.453 29.682c-.202.456-.45.902-.704 1.315l.182.784 6.157-1.978c.095-.03.25-.266.23-.354-.817-3.824-3.13-7.899-5.894-10.425-.086-.078-.354.108-.31.223.726 1.91 2.09 6.486.34 10.435zM15.22 29.467c-.484.121-.988.201-1.47.255l-.506.626 5.35 3.634c.082.056.363.032.42-.037 2.51-2.998 4.298-7.33 4.587-11.063.009-.116-.302-.212-.366-.107-1.058 1.748-3.825 5.64-8.015 6.692zM9.615 22.176c-.399-.3-.778-.642-1.123-.982l-.805.001.542 6.444c.008.099.204.302.294.304 3.91.063 8.401-1.274 11.485-3.399.095-.065-.026-.368-.148-.351-2.024.278-6.79.577-10.245-2.017zM11.882 13.231a11.21 11.21 0 0 1 .083-1.49l-.497-.633-4.744 4.394c-.073.068-.113.347-.059.419 2.357 3.12 6.176 5.836 9.749 6.957.11.035.274-.247.186-.333-1.465-1.424-4.635-4.996-4.718-9.314z" fill="#1A1717" fill-rule="nonzero"/>
        </g>
    </g>
</svg>
