<svg version="1.1" id="Layer_1" xmlns="http://www.w3.org/2000/svg" xmlns:xlink="http://www.w3.org/1999/xlink" x="0px" y="0px"
	 width="100%" viewBox="0 0 1024 1024" enable-background="new 0 0 1024 1024" xml:space="preserve">
<path fill="#000000" opacity="1.000000" stroke="none" 
	d="
M145.697647,680.000000 
	C145.695221,638.172180 145.692215,596.844360 145.691208,555.516541 
	C145.690872,541.632019 151.044052,535.668457 164.766373,534.725708 
	C168.257019,534.485962 168.822968,532.715942 168.819733,529.857666 
	C168.785248,499.361786 168.752426,468.865814 168.846481,438.370239 
	C168.857529,434.789459 167.102722,433.837311 164.043152,433.479950 
	C150.740234,431.926056 145.705368,426.257568 145.701477,412.920441 
	C145.687103,363.760315 145.687363,314.600220 145.690231,265.440094 
	C145.690948,252.966400 151.313019,246.401733 163.606201,245.311768 
	C167.774445,244.942169 168.902893,243.370621 168.874100,239.452774 
	C168.736877,220.789658 168.795593,202.124863 168.829575,183.460754 
	C168.880142,155.693039 186.652374,134.223145 213.828735,129.164017 
	C216.261505,128.711136 218.798431,128.683960 221.287003,128.683701 
	C423.593384,128.662491 625.899719,128.649078 828.206116,128.679916 
	C856.240723,128.684189 879.932007,152.372742 880.235840,180.777008 
	C880.455078,201.271973 880.288513,221.771088 880.288574,242.268356 
	C880.288757,423.077606 880.289917,603.886841 880.285217,784.696106 
	C880.284424,816.063599 857.324829,839.458191 825.959045,839.903137 
	C813.296692,840.082764 800.625549,840.105042 787.966614,839.825256 
	C783.303040,839.722229 780.335205,841.116028 777.712219,845.119446 
	C767.761658,860.307068 757.352417,875.193542 747.324646,890.331604 
	C744.048462,895.277405 739.869019,897.452026 733.982056,897.422791 
	C708.819397,897.297607 683.655090,897.264465 658.492920,897.429749 
	C652.703491,897.467773 648.703003,895.249268 645.559814,890.552368 
	C635.367493,875.322327 624.954224,860.239258 614.842651,844.956299 
	C612.483032,841.389954 609.896973,839.829346 605.501282,839.838440 
	C543.843079,839.965942 482.184540,839.954590 420.526306,839.837769 
	C416.393005,839.829895 413.763489,841.147339 411.483521,844.578796 
	C401.342773,859.840759 390.892212,874.897034 380.768250,890.169983 
	C377.395630,895.257935 373.161407,897.490479 367.027527,897.444580 
	C342.198883,897.258667 317.367340,897.257507 292.538574,897.432617 
	C286.222809,897.477234 281.896912,895.135071 278.427765,889.872009 
	C268.617523,874.988647 258.327942,860.419617 248.610474,845.477600 
	C245.768433,841.107544 242.542526,839.665222 237.527649,839.820679 
	C227.889618,840.119507 218.166763,840.482239 208.709595,837.959473 
	C185.308670,831.717224 169.054382,810.529724 168.867798,785.891174 
	C168.723938,766.894714 168.724121,747.895508 168.893082,728.899658 
	C168.930481,724.694031 167.819458,723.146729 163.330627,722.952332 
	C152.373428,722.477966 145.805008,715.107605 145.719711,703.991272 
	C145.659622,696.161255 145.701492,688.330444 145.697647,680.000000 
M208.057465,720.901123 
	C205.314087,722.188721 202.419891,723.236572 199.409882,723.055115 
	C195.105118,722.795532 194.096375,724.763977 194.127426,728.702576 
	C194.273270,747.200195 194.720398,765.719421 194.037842,784.193115 
	C193.340088,803.078491 208.989594,814.885986 224.688156,814.864197 
	C424.342499,814.587769 623.997375,814.688110 823.652100,814.690674 
	C843.661133,814.690918 855.026611,803.402161 855.028320,783.524902 
	C855.041321,632.367249 855.052368,481.209625 855.062012,330.052002 
	C855.065125,281.221588 854.984680,232.390976 855.114380,183.560913 
	C855.149170,170.463684 849.558716,161.184174 837.741760,155.773575 
	C832.985046,153.595657 827.794861,153.344604 822.572693,153.345596 
	C631.750793,153.382004 440.928833,153.376511 250.106918,153.377792 
	C240.940811,153.377853 231.771530,153.235046 222.609299,153.425705 
	C206.319183,153.764664 194.319168,165.917450 194.238800,182.131927 
	C194.142990,201.463638 194.189941,220.796127 194.221329,240.128220 
	C194.223907,241.713959 193.681351,243.483902 195.169006,244.867401 
	C195.631699,244.952087 196.114456,245.099152 196.602905,245.121384 
	C211.356277,245.792892 217.311157,251.973312 217.310974,266.645477 
	C217.310379,315.642548 217.310104,364.639618 217.301575,413.636688 
	C217.299316,426.532013 211.499969,432.836731 198.842148,433.375977 
	C195.509720,433.517944 194.136795,434.512146 194.148392,438.051849 
	C194.248901,468.716309 194.238968,499.381317 194.155151,530.045898 
	C194.145752,533.484497 195.345764,534.635559 198.809814,534.726685 
	C210.889435,535.044434 217.301453,541.846680 217.305695,554.077454 
	C217.322952,603.907776 217.265762,653.738220 217.344803,703.568420 
	C217.356323,710.833618 214.844040,716.518799 208.057465,720.901123 
M192.024216,334.500000 
	C192.012787,315.001770 191.911865,295.502838 192.060104,276.005798 
	C192.092468,271.749969 190.858521,269.804138 186.365097,270.255951 
	C183.395248,270.554535 180.337341,270.602631 177.379074,270.253143 
	C172.177612,269.638672 170.898834,271.873657 170.919083,276.792969 
	C171.079468,315.788696 170.983658,354.785370 171.010056,393.781769 
	C171.020187,408.757172 171.074646,408.561188 185.879776,408.786652 
	C190.796402,408.861511 192.119370,407.195221 192.081009,402.493134 
	C191.898880,380.163422 192.014755,357.831268 192.024216,334.500000 
M177.666306,697.775879 
	C179.829620,697.775085 181.992920,697.775452 184.156235,697.773315 
	C191.973282,697.765442 192.015976,697.765076 192.017654,689.814453 
	C192.025925,650.375793 192.010803,610.937195 192.000137,571.498535 
	C191.999374,568.669861 191.948715,565.841187 191.957184,563.012573 
	C191.964630,560.529297 190.786575,559.385620 188.282288,559.421082 
	C184.455856,559.475220 180.600113,559.707886 176.807541,559.340881 
	C171.994492,558.875061 170.898895,561.016724 170.910797,565.407104 
	C171.025360,607.674255 171.034744,649.942078 170.899246,692.209106 
	C170.884918,696.679504 172.473831,698.333679 177.666306,697.775879 
M656.863708,862.668335 
	C657.612793,863.768860 658.569336,864.781982 659.075684,865.984680 
	C661.523926,871.800232 665.952759,872.959900 671.903259,872.789246 
	C686.038025,872.383972 700.253662,871.850098 714.318970,872.917725 
	C725.333862,873.753845 732.358887,870.406921 737.398315,860.578186 
	C740.985779,853.581360 746.111816,847.373352 750.961243,840.207275 
	C714.373230,840.207275 678.753113,840.207275 642.229370,840.207275 
	C646.571411,848.448364 651.853638,855.049194 656.863708,862.668335 
M378.877014,848.425049 
	C380.220886,845.875732 382.744568,843.921997 383.201691,840.212158 
	C347.104156,840.212158 311.433685,840.212158 274.923676,840.212158 
	C282.234650,850.837524 289.190643,860.950623 296.151428,871.060364 
	C297.537201,873.073059 299.677826,872.636719 301.624664,872.639465 
	C320.269592,872.665527 338.915192,872.577515 357.558960,872.727234 
	C361.188049,872.756348 363.403870,871.378723 365.307587,868.446167 
	C369.566040,861.886292 374.069305,855.485291 378.877014,848.425049 
z"/>
<path fill="#000000" opacity="1.000000" stroke="none" 
	d="
M634.694458,298.208038 
	C688.326050,328.480499 725.241211,372.111511 740.412598,431.747589 
	C758.845215,504.203064 741.993042,568.990784 692.166748,624.609619 
	C655.466553,665.576355 608.911560,689.282654 554.567810,695.848938 
	C481.124146,704.723083 416.670288,683.809875 363.663452,631.679443 
	C329.741516,598.318359 309.202423,557.531067 303.584778,509.962433 
	C295.748016,443.603577 315.770294,386.286621 361.851410,338.336029 
	C397.734283,300.997375 442.028198,279.472717 493.299591,272.597809 
	C542.994690,265.934296 590.089905,274.343842 634.694458,298.208038 
M699.500000,496.420410 
	C691.835632,496.419342 684.170898,496.467316 676.507080,496.403656 
	C668.537476,496.337463 662.972717,491.288177 662.889282,484.177063 
	C662.805359,477.031189 668.684875,471.703644 676.808350,471.681122 
	C689.639038,471.645569 702.469788,471.682617 715.300537,471.677856 
	C721.910034,471.675415 722.387268,471.197418 721.548706,464.460144 
	C718.791016,442.302765 712.782104,421.114563 702.455444,401.240448 
	C701.791687,399.962982 701.468750,398.344971 699.265259,397.740417 
	C687.310852,404.646820 675.103271,411.785492 662.808167,418.770142 
	C655.581848,422.875305 648.205078,421.222198 644.566650,414.943481 
	C640.825317,408.487366 642.983093,401.459076 650.214600,397.183411 
	C658.531067,392.266235 666.981323,387.574890 675.287720,382.640991 
	C678.944885,380.468689 683.017822,378.868683 685.992432,375.803009 
	C685.799683,375.202881 685.771729,374.834839 685.587036,374.580597 
	C671.600098,355.324585 654.200562,339.758301 634.226135,326.943939 
	C631.403259,325.132965 630.128235,326.361664 628.772461,328.730072 
	C623.062500,338.704803 617.323547,348.664093 611.472412,358.556396 
	C607.196899,365.784912 599.979675,367.994324 593.696350,364.208252 
	C587.542419,360.500153 585.927185,353.281647 589.781189,346.265625 
	C592.106445,342.032654 594.581055,337.881744 596.983215,333.690887 
	C600.771301,327.082214 604.554810,320.470886 608.510071,313.564117 
	C607.723999,313.063202 607.329468,312.734344 606.877808,312.535156 
	C585.979004,303.317749 564.172241,297.765900 541.358093,296.191711 
	C537.756653,295.943207 537.220032,297.841736 537.239197,300.760162 
	C537.307251,311.090912 537.232300,321.422577 537.277222,331.753571 
	C537.297241,336.359467 535.904114,340.317596 532.150635,343.128510 
	C528.221802,346.070831 523.872009,346.448761 519.408569,344.472656 
	C513.989563,342.073486 512.054688,337.391113 511.963684,331.911652 
	C511.797699,321.916321 511.682129,311.910217 511.979492,301.921509 
	C512.121277,297.158875 510.384033,295.821014 505.869476,296.219177 
	C484.977051,298.061646 464.920837,303.108856 445.512146,311.034058 
	C441.424255,312.703278 440.987762,314.356567 443.152863,317.975891 
	C448.881378,327.552002 454.445831,337.231903 459.838379,347.001404 
	C463.316223,353.302094 461.328308,360.687927 455.646576,364.108093 
	C449.547577,367.779449 442.398743,365.973846 438.347321,359.572937 
	C436.121887,356.056915 434.177094,352.363983 432.080017,348.765839 
	C427.571014,341.029388 423.045349,333.302673 418.193420,325.002136 
	C396.249451,338.502655 377.858276,354.887573 363.185638,375.216156 
	C364.593658,377.822632 366.764404,378.478577 368.594574,379.540619 
	C378.824005,385.476715 389.131042,391.281067 399.307098,397.306763 
	C406.308594,401.452606 408.367188,408.383057 404.814209,414.770721 
	C401.339447,421.017700 394.099457,422.855530 387.096649,419.192291 
	C384.737274,417.958130 382.480835,416.527863 380.170074,415.199890 
	C369.954041,409.328888 359.735413,403.462555 349.212708,397.419373 
	C348.695648,398.208435 348.398193,398.605011 348.159851,399.034363 
	C336.344360,420.316559 330.236298,443.332825 327.365845,467.342224 
	C326.910187,471.153473 328.931366,471.737762 332.122772,471.713318 
	C345.452606,471.611145 358.783783,471.647675 372.114288,471.686493 
	C380.582550,471.711121 386.172455,476.567291 386.272675,483.870331 
	C386.377472,491.506927 380.908936,496.389374 372.095123,496.412994 
	C358.764618,496.448700 345.432770,496.519653 332.104034,496.361389 
	C327.977905,496.312408 326.923340,498.030090 327.419434,501.808502 
	C329.438507,517.186035 332.498413,532.312500 337.992035,546.863770 
	C341.039062,554.934509 344.237091,562.946350 349.077911,570.671143 
	C351.099152,569.621277 352.870941,568.781738 354.565430,567.807800 
	C365.252869,561.664795 375.896423,555.445068 386.608612,549.345764 
	C393.587280,545.372253 400.788818,546.905396 404.528595,552.987549 
	C408.444855,559.356812 406.442444,566.471130 399.279266,570.893311 
	C394.462067,573.867188 389.471436,576.559265 384.573395,579.403198 
	C377.421906,583.555420 370.283844,587.730774 362.557617,592.235962 
	C377.888306,613.223328 396.146332,629.752319 417.421143,642.691833 
	C419.748199,641.338806 420.428101,639.567261 421.329163,638.009583 
	C426.750397,628.637268 432.138184,619.245483 437.499481,609.838745 
	C439.570343,606.205322 442.281708,603.402588 446.584015,602.693237 
	C451.555450,601.873718 455.958557,603.052673 459.015472,607.250732 
	C462.262878,611.710510 462.411316,616.633057 459.760071,621.376587 
	C454.315552,631.117737 448.732178,640.783691 443.045074,650.385315 
	C441.145844,653.591736 440.987579,655.400208 445.040955,657.077515 
	C465.369049,665.489380 486.461945,670.484741 508.368225,672.274719 
	C511.243927,672.509766 511.885803,671.318054 511.873535,668.918640 
	C511.852264,664.753113 511.891357,660.587219 511.901367,656.421509 
	C511.917358,649.756287 511.765320,643.085510 511.986328,636.427185 
	C512.262939,628.094910 517.046448,622.861938 524.158997,622.673157 
	C531.812073,622.470032 537.057129,627.613586 537.204773,635.926941 
	C537.388123,646.255066 537.234253,656.588867 537.311340,666.919556 
	C537.324219,668.648499 536.653992,670.607483 538.559265,672.292603 
	C562.758362,670.799622 586.041870,665.133606 608.545349,655.027649 
	C607.718994,653.352112 607.327576,652.439026 606.837219,651.582642 
	C601.044006,641.463379 595.098145,631.428467 589.480225,621.213135 
	C585.747742,614.426025 587.758667,607.379700 593.933533,603.937073 
	C600.051636,600.526062 607.136108,602.552185 611.164795,608.972534 
	C612.934326,611.792419 614.490417,614.745728 616.162476,617.627319 
	C620.988770,625.944885 625.824829,634.256775 630.585815,642.448364 
	C644.598938,637.875122 681.621399,603.775940 685.843750,591.730713 
	C673.930969,584.845581 661.937927,577.992493 650.026550,571.000366 
	C642.902893,566.818665 640.790955,559.509155 644.630127,553.125305 
	C648.270996,547.071167 655.787231,545.437988 662.539368,549.286987 
	C667.170044,551.926636 671.741882,554.669312 676.370911,557.311951 
	C684.151672,561.753845 691.956970,566.152710 700.113098,570.774292 
	C703.575378,565.267029 705.928406,559.812988 708.279419,554.347778 
	C715.372375,537.859741 719.481018,520.602173 721.575134,502.832733 
	C722.267700,496.955048 721.729797,496.428650 715.996704,496.414490 
	C710.831177,496.401733 705.665466,496.417297 699.500000,496.420410 
z"/>
<path fill="#000000" opacity="1.000000" stroke="none" 
	d="
M539.349121,597.585693 
	C475.983612,605.020874 416.365051,563.596313 406.933990,500.425262 
	C398.848480,446.266815 430.451935,395.857727 482.968933,376.961121 
	C540.626160,356.214966 605.524048,381.414001 632.048218,434.846680 
	C654.893066,480.867310 642.908875,536.845032 603.384216,569.790710 
	C584.833008,585.254028 563.749207,594.591248 539.349121,597.585693 
M500.889893,570.599670 
	C504.270752,571.252625 507.597992,572.356750 511.306091,572.001770 
	C512.362000,568.276367 511.693970,564.600159 511.883545,560.987671 
	C512.332947,552.424438 517.660095,546.670044 524.988892,546.907837 
	C532.218994,547.142456 537.032654,552.846863 537.304932,561.232117 
	C537.420898,564.806274 536.582703,568.482849 538.048584,572.202698 
	C544.838928,571.629089 551.216125,570.226196 557.497620,567.501343 
	C556.362244,563.016113 553.615295,559.782410 551.779907,556.108643 
	C548.285400,549.114075 550.132446,541.840332 556.380249,538.438110 
	C562.726562,534.982239 569.680786,537.308716 573.757202,544.169067 
	C575.946045,547.852783 577.710876,551.822144 581.002625,555.478088 
	C586.826172,551.170593 592.374634,546.881836 597.094482,540.512573 
	C592.664062,537.927490 588.673279,535.621216 584.705017,533.276794 
	C581.125427,531.161926 578.304504,528.385559 577.742737,524.053162 
	C577.099976,519.095581 578.330994,514.740295 582.642822,511.745270 
	C586.867126,508.810974 591.409180,508.779694 595.924316,510.913696 
	C600.841187,513.237610 605.183411,516.713623 610.847900,518.654053 
	C614.663208,511.886261 616.346863,504.773376 617.298157,497.673370 
	C615.514038,495.971283 613.766479,496.459747 612.153687,496.435272 
	C607.988220,496.372070 603.817871,496.510864 599.655823,496.374481 
	C592.577026,496.142548 587.727844,491.195801 587.663879,484.326233 
	C587.599976,477.455353 592.393555,472.032806 599.197998,471.752716 
	C605.110107,471.509369 611.040222,471.702026 617.517334,471.702026 
	C616.096436,463.317261 614.715881,455.973480 610.434875,449.060516 
	C605.905090,451.657654 601.908691,454.019867 597.846558,456.262848 
	C589.986694,460.602783 583.064026,459.228149 579.181396,452.633667 
	C575.405518,446.220551 577.897278,439.184784 585.319824,434.552460 
	C589.050232,432.224335 593.434265,430.816864 596.712341,427.010071 
	C591.997620,421.380157 586.880127,416.598602 580.433167,412.542786 
	C577.767212,417.099823 575.466309,421.324615 572.883545,425.369385 
	C570.024292,429.847137 565.707764,431.891998 560.482056,431.141937 
	C555.450439,430.419678 552.213867,427.268646 550.449890,422.467590 
	C548.896118,418.238678 550.427734,414.658783 552.348022,411.058197 
	C554.116028,407.743042 556.687561,404.795135 557.329407,400.974945 
	C552.449097,398.263336 544.453064,396.295227 537.807678,396.149353 
	C536.757446,399.508545 537.331116,403.010742 537.270996,406.449097 
	C537.115906,415.326385 532.047791,421.274994 524.510620,421.260223 
	C517.220703,421.245941 512.249023,415.461761 511.894470,406.728821 
	C511.754791,403.287933 512.385376,399.784027 511.318939,396.010895 
	C504.321106,396.372467 497.927521,398.164124 491.429718,400.674042 
	C492.893829,405.271332 495.639252,408.493774 497.492554,412.175171 
	C501.002777,419.147949 499.338074,426.003754 493.184906,429.569672 
	C486.836243,433.248901 479.935211,431.152954 475.760193,424.240540 
	C473.465393,420.441162 471.226685,416.607880 468.988495,412.833374 
	C462.135986,416.289673 454.644531,423.396790 452.978058,427.888977 
	C456.615814,431.068237 461.221100,432.753296 465.260468,435.349457 
	C468.182373,437.227386 470.416779,439.574615 471.241943,443.013062 
	C472.473907,448.146729 471.362640,452.727783 467.198914,456.075439 
	C463.091278,459.378052 458.474060,459.806946 453.613403,457.482330 
	C448.548340,455.059998 444.177429,451.294312 438.337433,449.434967 
	C435.118622,455.514404 433.412231,461.874603 432.312103,468.423523 
	C431.904205,470.851807 433.317566,471.673859 435.549866,471.656342 
	C439.549164,471.624969 443.549133,471.648743 447.548615,471.678558 
	C456.329224,471.744019 461.712372,476.555420 461.708954,484.311890 
	C461.705811,491.488190 456.032074,496.367645 447.585968,496.416168 
	C442.485138,496.445465 437.384003,496.421570 432.317719,496.421570 
	C432.273438,501.952362 434.092621,508.833862 436.423523,515.018494 
	C437.847229,518.796143 439.667694,519.000977 442.731140,516.960205 
	C445.498566,515.116577 448.469360,513.576965 451.359985,511.919830 
	C458.704651,507.709320 466.544464,509.228027 470.157013,515.551697 
	C473.870941,522.052917 471.409332,529.263855 463.985291,533.595764 
	C460.155792,535.830261 456.315247,538.045837 451.914886,540.597534 
	C457.114441,546.702393 462.391571,551.462341 468.746521,555.737915 
	C471.408356,551.138611 473.551178,547.199524 475.917847,543.399780 
	C479.913055,536.985474 486.908051,535.132874 493.202820,538.669861 
	C499.298920,542.095215 501.115814,549.318604 497.494476,556.029114 
	C495.540863,559.649292 493.460785,563.201233 491.480469,566.708313 
	C494.203888,569.248413 497.328674,569.404968 500.889893,570.599670 
z"/>
</svg>