<svg width="639" height="176" viewBox="0 0 639 176" fill="none" xmlns="http://www.w3.org/2000/svg">
<path d="M230.37 103.2C230.37 114.83 221.26 121.62 203.81 121.62H170.08V53.7695H201.87C218.15 53.7695 226.88 60.6495 226.88 71.4095C226.88 78.3895 223.39 83.5295 218.16 86.3395C225.43 88.6595 230.37 94.3795 230.37 103.21V103.2ZM182.68 63.6495V82.3595H200.52C209.24 82.3595 214.19 79.2595 214.19 73.0495C214.19 66.8395 209.25 63.6495 200.52 63.6495H182.68ZM217.67 101.94C217.67 95.1595 212.53 92.1495 203.03 92.1495H182.67V111.73H203.03C212.53 111.73 217.67 108.73 217.67 101.94Z" fill="black"/>
<path d="M203.81 122.02H169.67V53.3604H201.87C217.78 53.3604 227.28 60.1003 227.28 71.4003C227.28 77.8503 224.4 83.0804 219.13 86.2404C226.54 88.9404 230.76 95.0803 230.76 103.2C230.76 115.34 221.19 122.02 203.8 122.02H203.81ZM170.48 121.21H203.81C220.68 121.21 229.96 114.81 229.96 103.2C229.96 95.1503 225.61 89.1404 218.03 86.7204L217.12 86.4303L217.96 85.9803C223.45 83.0303 226.47 77.8504 226.47 71.4104C226.47 60.4604 217.5 54.1803 201.86 54.1803H170.47V121.22L170.48 121.21ZM203.03 112.13H182.27V91.7404H203.03C213.15 91.7404 218.07 95.0703 218.07 101.93C218.07 108.79 213.15 112.12 203.03 112.12V112.13ZM183.08 111.32H203.03C212.61 111.32 217.26 108.25 217.26 101.94C217.26 95.6304 212.6 92.5603 203.03 92.5603H183.08V111.33V111.32ZM200.51 82.7603H182.27V63.2404H200.51C209.72 63.2404 214.58 66.6304 214.58 73.0504C214.58 79.4704 209.71 82.7603 200.51 82.7603ZM183.08 81.9503H200.51C206.56 81.9503 213.77 80.4104 213.77 73.0504C213.77 65.6904 206.56 64.0504 200.51 64.0504H183.08V81.9503Z" fill="black"/>
<path d="M250.18 53.7598H262.78V121.61H250.18V53.7598Z" fill="black"/>
<path d="M263.18 122.02H249.77V53.3604H263.18V122.02ZM250.579 121.21H262.37V54.1703H250.579V121.21Z" fill="black"/>
<path d="M295.18 64.3198V84.9698H327.94V95.6298H295.18V121.61H282.58V53.7598H332.11V64.3198H295.18Z" fill="black"/>
<path d="M295.59 122.02H282.18V53.3604H332.52V64.7303H295.59V84.5704H328.35V96.0403H295.59V122.02ZM282.99 121.21H294.78V95.2303H327.54V85.3804H294.78V63.9203H331.71V54.1703H282.99V121.21Z" fill="black"/>
<path d="M396.31 121.61L382.45 101.74C381.58 101.84 380.7 101.84 379.83 101.84H364.52V121.61H351.92V53.7598H379.84C397.68 53.7598 408.73 62.8698 408.73 77.8998C408.73 88.1698 403.5 95.7298 394.29 99.3198L409.9 121.62H396.33L396.31 121.61ZM379.25 64.4198H364.52V91.4598H379.25C390.3 91.4598 396.02 86.4198 396.02 77.8898C396.02 69.3598 390.3 64.4198 379.25 64.4198Z" fill="black"/>
<path d="M410.66 122.02H396.099L395.979 121.85L382.26 102.17C381.44 102.25 380.629 102.25 379.839 102.25H364.93V122.02H351.52V53.3604H379.839C397.909 53.3604 409.13 62.7603 409.13 77.9003C409.13 88.0903 404.08 95.7404 394.91 99.5004L410.67 122.01L410.66 122.02ZM396.52 121.21H409.099L393.64 99.1304L394.12 98.9404C403.27 95.3804 408.31 87.9103 408.31 77.9003C408.31 63.2603 397.399 54.1703 379.829 54.1703H352.319V121.21H364.109V101.44H379.829C380.679 101.44 381.56 101.44 382.4 101.34L382.64 101.31L382.78 101.51L396.52 121.21ZM379.25 91.8703H364.109V64.0204H379.25C390.32 64.0204 396.42 68.9503 396.42 77.9003C396.42 86.8503 390.32 91.8703 379.25 91.8703ZM364.92 91.0603H379.25C389.8 91.0603 395.609 86.3803 395.609 77.9003C395.609 69.4203 389.8 64.8304 379.25 64.8304H364.92V91.0603Z" fill="black"/>
<path d="M423.1 87.69C423.1 67.62 438.61 52.79 459.64 52.79C480.67 52.79 496.18 67.53 496.18 87.69C496.18 107.85 480.67 122.58 459.64 122.58C438.61 122.58 423.1 107.75 423.1 87.69ZM483.49 87.69C483.49 73.83 473.31 63.84 459.64 63.84C445.97 63.84 435.8 73.82 435.8 87.69C435.8 101.56 445.98 111.54 459.64 111.54C473.3 111.54 483.49 101.55 483.49 87.69Z" fill="black"/>
<path d="M459.65 122.98C438.24 122.98 422.7 108.14 422.7 87.6799C422.7 67.2199 438.24 52.3799 459.65 52.3799C481.06 52.3799 496.6 67.2299 496.6 87.6799C496.6 108.13 481.06 122.98 459.65 122.98ZM459.65 53.1899C438.71 53.1899 423.51 67.6999 423.51 87.6799C423.51 107.66 438.71 122.17 459.65 122.17C480.59 122.17 495.79 107.67 495.79 87.6799C495.79 67.6899 480.59 53.1899 459.65 53.1899ZM459.65 111.93C445.6 111.93 435.4 101.73 435.4 87.6799C435.4 73.6299 445.6 63.4299 459.65 63.4299C473.7 63.4299 483.9 73.6299 483.9 87.6799C483.9 101.73 473.7 111.93 459.65 111.93ZM459.65 64.2399C446.07 64.2399 436.21 74.0999 436.21 87.6799C436.21 101.26 446.07 111.12 459.65 111.12C473.23 111.12 483.09 101.26 483.09 87.6799C483.09 74.0999 473.23 64.2399 459.65 64.2399Z" fill="black"/>
<path d="M602.74 64.4198H580.25V53.7598H637.83V64.4198H615.34V121.61H602.74V64.4198Z" fill="black"/>
<path d="M615.74 122.02H602.33V64.8304H579.84V53.3604H638.23V64.8304H615.74V122.02ZM603.14 121.21H614.93V64.0204H637.42V54.1703H580.65V64.0204H603.14V121.21Z" fill="black"/>
<path d="M561.83 89.3996C557.98 86.3596 551.35 84.0496 542.13 82.5396C535.54 81.4096 530.91 80.0596 528.39 78.5196C525.96 77.0396 524.78 74.9996 524.78 72.2896C524.78 69.9596 526.2 67.8596 529 66.0496C531.89 64.1796 535.47 63.2396 539.65 63.2396C543.83 63.2396 547.35 64.1396 550.1 65.9196C552.83 67.6896 554.91 70.6496 556.27 74.7296L556.5 75.4296L566.53 72.2196L566.98 72.0796C566.94 71.8296 566.9 71.5796 566.85 71.3196C566.57 69.9096 566.17 68.4896 565.59 67.0896C563.73 62.5596 560.6 59.0096 556.94 56.8096V56.7896C556.86 56.7396 556.76 56.7096 556.68 56.6596C555.87 56.1896 555.04 55.7696 554.19 55.4396C550.23 53.7196 545.38 52.8096 539.65 52.8096C534.39 52.8096 529.68 53.7396 525.66 55.5696C521.62 57.4096 518.47 59.8996 516.3 62.9696C514.12 66.0596 513.02 69.5096 513.02 73.2296C513.02 76.9496 513.9 80.2796 515.63 82.8796C517.36 85.4796 520.15 87.6396 523.95 89.3096C527.69 90.9596 532.8 92.3696 539.16 93.5196C545.49 94.6496 549.96 95.9796 552.44 97.4796C554.83 98.9196 555.99 100.77 555.99 103.12C555.99 105.75 554.73 107.88 552.15 109.63C549.53 111.4 545.64 112.3 540.59 112.3C535.54 112.3 531.37 111.34 527.78 109.46C526.76 108.92 525.83 108.29 524.99 107.59C524.12 106.86 523.35 106.06 522.65 105.18C521.29 103.39 520.23 101.17 519.54 98.4496L519.36 97.7496L509.21 100.18L508.76 100.29C508.78 100.54 508.8 100.79 508.83 101.05C508.98 102.3 509.25 103.56 509.62 104.81L509.6 104.83C509.9 105.94 510.73 107.7 510.83 107.93C510.83 107.93 510.83 107.94 510.83 107.95V107.97C512.46 111.17 514.71 113.85 517.52 116.03C518.91 117.11 520.38 118.11 522.05 118.92C527.22 121.46 533.09 122.75 539.5 122.75C545.09 122.75 550.08 121.89 554.33 120.2C558.6 118.49 561.93 116.09 564.23 113.07C566.55 110.02 567.72 106.5 567.72 102.6C567.72 96.9696 565.73 92.5496 561.81 89.4396L561.83 89.3996Z" fill="black"/>
<path d="M539.51 123.12C533.05 123.12 527.12 121.82 521.88 119.25C520.37 118.51 518.91 117.58 517.28 116.31C514.41 114.08 512.12 111.33 510.49 108.14L510.43 108.02C510.11 107.35 509.45 105.88 509.19 104.89L509.13 104.68V104.66C508.79 103.44 508.54 102.23 508.4 101.05C508.37 100.79 508.34 100.53 508.32 100.27L508.29 99.9199L509.07 99.7299L519.12 97.3199L519.53 96.9099L519.61 97.1999L519.72 97.1699V97.6299L519.89 98.2899C520.53 100.86 521.56 103.08 522.93 104.88C523.6 105.74 524.37 106.53 525.2 107.23C526.05 107.94 526.97 108.55 527.92 109.05C531.45 110.91 535.7 111.85 540.55 111.85C545.4 111.85 549.33 110.97 551.89 109.25C554.35 107.58 555.55 105.56 555.55 103.07C555.55 100.87 554.45 99.1399 552.2 97.7799C549.76 96.3099 545.34 94.9999 539.06 93.8799C532.66 92.7199 527.51 91.2999 523.76 89.6499C519.9 87.9499 517.04 85.7399 515.27 83.0699C513.49 80.4099 512.59 77.0899 512.59 73.1999C512.59 69.3099 513.72 65.8699 515.95 62.7099C518.16 59.5799 521.37 57.0499 525.48 55.1799C529.56 53.3199 534.33 52.3799 539.64 52.3799C545.33 52.3799 550.28 53.2799 554.35 55.0499C555.15 55.3699 555.98 55.7699 556.88 56.2899C557.03 56.3599 557.1 56.3899 557.16 56.4299L557.35 56.5699C561.14 58.9099 564.19 62.5799 565.97 66.9199C566.52 68.2599 566.95 69.7099 567.25 71.2199C567.3 71.4799 567.34 71.7399 567.38 71.9899L567.43 72.3299L556.3 75.8999L556.14 75.5899L555.88 74.8399C554.55 70.8499 552.53 67.9599 549.87 66.2399C547.19 64.4999 543.75 63.6199 539.64 63.6199C535.53 63.6199 532.03 64.5399 529.21 66.3699C526.53 68.0999 525.17 70.0899 525.17 72.2699C525.17 74.8299 526.29 76.7599 528.59 78.1599C531.07 79.6799 535.65 81.0099 542.18 82.1299C551.47 83.6499 558.16 85.9799 562.06 89.0699C566.09 92.2499 568.13 96.7899 568.13 102.54C568.13 106.53 566.93 110.14 564.55 113.26C562.2 116.34 558.81 118.79 554.48 120.52C550.18 122.23 545.15 123.1 539.5 123.1L539.51 123.12ZM511.24 107.82C512.82 110.88 515.02 113.53 517.78 115.67C519.36 116.9 520.78 117.81 522.24 118.52C527.36 121.03 533.17 122.31 539.51 122.31C545.05 122.31 549.99 121.46 554.19 119.78C558.39 118.1 561.66 115.75 563.92 112.78C566.18 109.8 567.33 106.36 567.33 102.55C567.33 97.0499 565.39 92.7299 561.57 89.7099C557.77 86.7099 551.21 84.4299 542.06 82.9299C535.42 81.7999 530.74 80.4299 528.17 78.8599C525.61 77.2999 524.36 75.1399 524.36 72.2799C524.36 69.7999 525.84 67.5899 528.77 65.6999C531.73 63.7899 535.38 62.8199 539.64 62.8199C543.9 62.8199 547.5 63.7399 550.31 65.5699C553.12 67.3899 555.26 70.4199 556.65 74.5899L556.76 74.9099L566.52 71.7799C566.5 71.6499 566.47 71.5099 566.45 71.3799C566.16 69.9199 565.75 68.5199 565.22 67.2299C563.48 62.9699 560.46 59.3899 556.73 57.1399L556.57 57.0499C556.57 57.0499 556.5 57.0199 556.47 56.9999C555.61 56.4999 554.81 56.1099 554.04 55.7999C550.06 54.0699 545.22 53.1999 539.64 53.1999C534.44 53.1999 529.79 54.1199 525.81 55.9299C521.84 57.7399 518.74 60.1899 516.61 63.1999C514.48 66.2199 513.4 69.5899 513.4 73.2199C513.4 76.8499 514.26 80.1099 515.95 82.6399C517.63 85.1699 520.37 87.2799 524.09 88.9199C527.79 90.5499 532.87 91.9499 539.21 93.0999C545.59 94.2399 550.1 95.5899 552.63 97.1099C555.15 98.6299 556.37 100.59 556.37 103.09C556.37 105.87 555.06 108.11 552.35 109.94C549.66 111.76 545.7 112.68 540.56 112.68C535.42 112.68 531.21 111.71 527.56 109.79C526.56 109.26 525.59 108.62 524.7 107.87C523.82 107.13 523.01 106.3 522.31 105.4C520.87 103.5 519.8 101.19 519.13 98.5099L518.94 98.6899V98.2199L509.18 100.56C509.19 100.69 509.21 100.82 509.22 100.96C509.37 102.16 509.63 103.41 510 104.65L510.06 104.86L510.04 104.88C510.33 105.84 510.95 107.19 511.17 107.67L511.24 107.74V107.81V107.82Z" fill="black"/>
<path d="M120.32 99.4202C119.87 98.2602 119.35 96.9902 118.82 95.8602C116.45 99.0202 113.7 101.9 110.55 104.45L108.14 106.39C108.29 106.83 108.44 107.29 108.58 107.75C108.83 108.6 109.05 109.45 109.24 110.29L109.27 110.4C109.47 111.29 109.64 112.19 109.77 113.08L109.83 113.44C109.94 114.22 110.04 115.07 110.11 115.94L110.13 116.15C110.14 116.26 110.16 116.37 110.16 116.48C110.24 117.55 110.27 118.54 110.27 119.49C110.27 142.63 91.4402 161.45 68.3002 161.45H14.2101V111.81H68.3002C69.6002 111.81 70.9801 111.75 72.5101 111.64L73.0001 111.61C74.2601 111.51 75.5501 111.35 76.9501 111.13L77.5502 111.03C78.8502 110.81 80.1401 110.55 81.4001 110.24L81.8701 110.12C83.2401 109.78 84.5501 109.4 85.7701 109L86.0101 109.36L85.8801 108.96C88.5701 108.07 91.2101 106.95 93.7401 105.65C94.9801 105.01 96.2201 104.31 97.4401 103.56L97.5402 103.5C98.7502 102.75 99.9302 101.96 101.03 101.15L104.24 98.6202C108.19 95.4302 111.54 91.7302 114.25 87.5802L114.35 87.4602C114.65 87.0102 114.97 86.5002 115.29 85.9802L115.61 85.4602C121.14 76.6002 124.07 66.4202 124.07 56.0202C124.07 25.2702 99.0502 0.240234 68.3002 0.240234H0.390137V77.5002H68.3002C74.7802 77.5002 81.0101 78.9802 86.8501 81.8802C87.3201 82.1202 87.8001 82.3602 88.2601 82.6202L88.3301 82.5602C92.0501 79.5602 95.2101 76.0202 97.8201 72.1702C97.3801 71.8902 96.9101 71.6402 96.4601 71.3702C96.4601 71.3702 96.4601 71.3702 96.4601 71.3602C96.2901 71.2602 96.1201 71.1802 95.9601 71.0902C95.2401 70.6702 94.5001 70.2702 93.7601 69.8902C93.3201 69.6602 92.8702 69.4402 92.4202 69.2302C91.9302 69.0002 91.4302 68.7602 90.9302 68.5402C90.1202 68.1802 89.3001 67.8402 88.4701 67.5102C88.3601 67.4702 88.2401 67.4202 88.1301 67.3802C87.0701 66.9802 86.0002 66.6002 84.9202 66.2602C84.9202 66.2602 84.9101 66.2602 84.9001 66.2602C79.5401 64.5802 73.9402 63.6902 68.2802 63.6902H14.1802V14.0502H68.2802C69.3002 14.0502 70.3001 14.1202 71.2701 14.2002H71.4102C93.1802 15.8302 110.24 34.2002 110.24 56.0202C110.24 61.6202 109.14 67.0702 106.97 72.2302C106.36 73.6902 105.65 75.1302 104.88 76.5002L104.81 76.6102C102.09 80.8802 98.9002 84.6902 95.3002 88.0202C95.1602 88.1502 95.0201 88.2702 94.8801 88.3902L94.6001 88.6302C93.0701 89.8702 91.4902 90.9802 89.9102 91.9402C83.3702 95.8902 75.8901 97.9802 68.2701 97.9802H0.370117V175.24H68.2701C99.0201 175.24 124.04 150.22 124.04 119.46C124.04 112.56 122.76 105.83 120.27 99.4102L120.32 99.4202Z" fill="url(#paint0_linear_1737_17321)"/>
<defs>
<linearGradient id="paint0_linear_1737_17321" x1="81.0601" y1="33.8002" x2="18.6301" y2="144.55" gradientUnits="userSpaceOnUse">
<stop stop-color="#00F1FF"/>
<stop offset="0.21" stop-color="#00B1FF"/>
<stop offset="1" stop-color="#6600FF"/>
</linearGradient>
</defs>
</svg>
