<?xml version="1.0" encoding="UTF-8"?>
<svg xmlns="http://www.w3.org/2000/svg" width="161" height="174" viewBox="0 0 161 174" fill="none">
  <path fill-rule="evenodd" clip-rule="evenodd" d="M159.527 97.7213C159.527 97.7186 159.528 97.7158 159.53 97.7138L159.537 97.7064C159.548 97.696 159.548 97.6789 159.538 97.6682L159.519 97.6487C159.512 97.6416 159.507 97.6327 159.505 97.623L152.598 67.4498C152.555 67.2646 152.412 67.1195 152.227 67.0751L122.993 60.0604C122.976 60.0564 122.961 60.0478 122.949 60.0355C122.914 59.9997 122.857 59.9989 122.821 60.0337L72.8576 108.612C72.578 108.883 72.1086 108.745 72.0216 108.365L66.2163 83.0046C66.1739 82.8195 66.0303 82.6743 65.8456 82.63L40.1811 76.4719C39.798 76.38 39.6668 75.9018 39.9492 75.6272L89.5704 27.3822C89.6956 27.2605 89.7482 27.0823 89.7092 26.9121L82.9717 -2.52015C82.9294 -2.70531 82.7857 -2.85046 82.601 -2.89478L54.0576 -9.74372C53.8909 -9.78372 53.7153 -9.73552 53.5924 -9.61601L-28.2891 69.9947C-28.2995 70.0047 -28.2997 70.0213 -28.2896 70.0317L-28.2714 70.0504C-28.2584 70.0637 -28.271 70.0858 -28.2891 70.0814C-28.3029 70.0781 -28.3151 70.0908 -28.3114 70.1044L-20.6212 98.2076C-20.5767 98.3705 -20.453 98.4998 -20.2923 98.5516L5.78943 106.956C5.9501 107.008 6.07379 107.137 6.11835 107.3L13.4465 134.08C13.491 134.243 13.6147 134.372 13.7754 134.424L40.6069 143.07C40.7675 143.122 40.8912 143.252 40.9358 143.414L47.831 168.612C47.8755 168.775 47.9992 168.905 48.1599 168.956L76.7578 178.172C76.7716 178.176 76.7849 178.164 76.7817 178.15L76.7789 178.138C76.7755 178.123 76.7939 178.113 76.8045 178.124C76.8104 178.13 76.82 178.13 76.826 178.124L123.154 133.08C123.156 133.079 123.159 133.078 123.162 133.079C123.167 133.081 123.173 133.076 123.171 133.07L123.171 133.069C123.171 133.066 123.172 133.064 123.174 133.062L159.51 97.7326C159.512 97.7307 159.515 97.73 159.518 97.7308C159.524 97.7326 159.529 97.7277 159.528 97.722L159.527 97.7213ZM123.615 62.7414C123.515 62.3743 123.058 62.2495 122.785 62.5148L89.1454 95.2212C88.8629 95.4958 88.9942 95.974 89.3773 96.0659L115.463 102.325C115.63 102.365 115.806 102.317 115.929 102.198L130.316 88.2087C130.447 88.0818 130.498 87.8939 130.45 87.7183L123.615 62.7414ZM132.405 88.9941C132.229 88.9373 132.036 88.9825 131.903 89.1115L116.732 103.862C116.607 103.984 116.554 104.162 116.593 104.332L122.514 130.198C122.601 130.578 123.07 130.716 123.35 130.444L157.028 97.7001C157.299 97.4373 157.192 96.9813 156.833 96.8657L132.405 88.9941ZM132.339 87.1345C132.179 87.0828 132.055 86.9534 132.01 86.7906L125.566 63.2393C125.465 62.8726 125.795 62.5324 126.165 62.6211L150.764 68.5236C150.948 68.5679 151.092 68.7131 151.134 68.8982L156.942 94.2686C157.029 94.6466 156.67 94.975 156.301 94.8561L132.339 87.1345ZM95.5473 124.459C95.68 124.33 95.873 124.285 96.0492 124.342L120.477 132.214C120.836 132.329 120.943 132.785 120.672 133.048L76.9645 175.544C76.6849 175.815 76.2156 175.677 76.1286 175.297L70.2076 149.431C70.1686 149.261 70.2213 149.083 70.3465 148.961L95.5473 124.459ZM120.586 129.616C120.672 129.995 120.314 130.323 119.945 130.204L97.9741 123.124C97.6153 123.008 97.5086 122.552 97.7789 122.29L114.424 106.106C114.704 105.834 115.173 105.972 115.26 106.353L120.586 129.616ZM95.3812 121.141C95.4816 121.508 95.9391 121.633 96.212 121.367L113.596 104.466C113.878 104.191 113.747 103.713 113.364 103.621L89.8085 97.969C89.4388 97.8803 89.1092 98.2204 89.2096 98.5872L95.3812 121.141ZM69.078 147.424C69.2447 147.464 69.4203 147.416 69.5432 147.297L93.9603 123.557C94.0908 123.43 94.1421 123.242 94.094 123.066L87.2593 98.0892C87.1589 97.7221 86.7014 97.5974 86.4285 97.8627L72.6812 111.229C72.6792 111.231 72.6783 111.234 72.679 111.236L72.6791 111.237C72.6804 111.243 72.675 111.248 72.6694 111.246C72.6668 111.245 72.6639 111.246 72.6619 111.248L42.183 140.881C42.1688 140.895 42.1628 140.915 42.1673 140.935C42.1721 140.956 42.1884 140.972 42.2094 140.977L69.078 147.424ZM42.6587 143.081C42.6367 142.986 42.7231 142.9 42.8187 142.923L66.9784 148.72C67.3615 148.812 67.4927 149.29 67.2103 149.565L49.8266 166.466C49.5537 166.732 49.0962 166.607 48.9958 166.24L42.6587 143.081ZM51.3935 167.389C51.1232 167.651 51.2299 168.107 51.5887 168.223L73.5596 175.303C73.9288 175.422 74.2869 175.094 74.2004 174.715L68.875 151.452C68.7879 151.071 68.3186 150.933 68.039 151.205L51.3935 167.389ZM40.1631 140.486C40.1812 140.491 40.1937 140.468 40.1808 140.455L40.1625 140.436C40.1525 140.426 40.1527 140.409 40.1631 140.399L40.2016 140.362C40.2216 140.342 40.23 140.314 40.2238 140.287L34.7081 116.192C34.6211 115.812 34.1518 115.673 33.8722 115.945L16.6101 132.728C16.3399 132.991 16.4465 133.447 16.8053 133.562L39.9733 141.028C40.1192 141.075 40.2591 140.941 40.2186 140.793L40.1408 140.509C40.1371 140.496 40.1493 140.483 40.1631 140.486ZM35.0472 112.357C34.9242 112.476 34.7487 112.524 34.582 112.484L9.36481 106.434C8.98176 106.342 8.85049 105.863 9.13292 105.589L38.0799 77.4446C38.3528 77.1793 38.8103 77.304 38.9108 77.6711L45.5178 101.816C45.5658 101.992 45.5146 102.179 45.384 102.306L35.0472 112.357ZM8.3281 108.746C8.22774 108.38 8.55728 108.039 8.92704 108.128L32.4823 113.78C32.8654 113.872 32.9967 114.35 32.7142 114.625L15.3305 131.526C15.0576 131.792 14.6001 131.667 14.4997 131.3L8.3281 108.746ZM36.1796 113.701C36.0544 113.823 36.0018 114.001 36.0407 114.171L41.5038 138.036C41.5908 138.416 42.0601 138.555 42.3397 138.283L70.1798 111.215C70.4501 110.952 70.3435 110.496 69.9847 110.381L47.4461 103.118C47.2699 103.061 47.0769 103.106 46.9442 103.235L36.1796 113.701ZM49.1758 101.066C48.9055 101.328 49.0122 101.784 49.371 101.9L69.4527 108.371C69.8218 108.49 70.18 108.162 70.0934 107.784L65.2259 86.5202C65.1389 86.14 64.6696 86.0014 64.39 86.2733L49.1758 101.066ZM63.5305 84.6632C63.813 84.3886 63.6817 83.9104 63.2986 83.8185L41.7609 78.6506C41.3911 78.5619 41.0616 78.902 41.162 79.2688L46.8049 99.8906C46.9054 100.258 47.3629 100.382 47.6357 100.117L63.5305 84.6632ZM-0.0487841 76.6183C-0.171703 76.7378 -0.347287 76.786 -0.513991 76.746L-25.4603 70.7602C-25.8434 70.6683 -25.9746 70.1901 -25.6922 69.9155L19.23 26.2391C19.5029 25.9738 19.9604 26.0985 20.0608 26.4656L26.5969 50.3512C26.6449 50.5268 26.5937 50.7147 26.4631 50.8416L-0.0487841 76.6183ZM-25.628 73.2814C-25.7284 72.9147 -25.3988 72.5746 -25.0291 72.6633L-2.61359 78.0418C-2.23054 78.1337 -2.09927 78.6119 -2.38171 78.8865L-18.9243 94.9703C-19.1971 95.2356 -19.6546 95.1109 -19.7551 94.7438L-25.628 73.2814ZM0.164057 79.9167C0.0770427 79.5366 -0.392286 79.398 -0.67188 79.6698L-18.1261 96.6399C-18.3963 96.9027 -18.2897 97.3587 -17.9309 97.4743L5.10746 104.898C5.4766 105.017 5.83475 104.689 5.74821 104.311L0.164057 79.9167ZM28.4502 51.7259C28.2741 51.6692 28.081 51.7143 27.9483 51.8433L1.63555 77.4264C1.51037 77.5481 1.45774 77.7262 1.4967 77.8964L7.41569 103.753C7.50271 104.133 7.97203 104.272 8.25163 104L53.0651 60.4293C53.3354 60.1665 53.2287 59.7106 52.8699 59.5949L28.4502 51.7259ZM54.2904 58.1784C54.3774 58.5585 54.8467 58.6972 55.1263 58.4253L86.5582 27.8651C86.8285 27.6023 86.7218 27.1463 86.363 27.0307L61.9433 19.1617C61.7672 19.1049 61.5741 19.1501 61.4414 19.2791L48.5102 31.8517C48.385 31.9734 48.3324 32.1516 48.3714 32.3217L54.2904 58.1784ZM47.1251 30.4281C47.2918 30.4681 47.4674 30.4199 47.5903 30.3004L60.2301 18.0112C60.3606 17.8842 60.4119 17.6963 60.3638 17.5207L53.8278 -6.36485C53.7273 -6.73196 53.2699 -6.85669 52.997 -6.59137L21.9469 23.5976C21.6644 23.8722 21.7957 24.3504 22.1788 24.4423L47.1251 30.4281ZM45.0255 31.7239C45.4085 31.8158 45.5398 32.294 45.2574 32.5686L28.7148 48.6524C28.442 48.9177 27.9845 48.793 27.884 48.4259L22.0111 26.9636C21.9107 26.5968 22.2403 26.2567 22.61 26.3454L45.0255 31.7239ZM30.3751 50.508C30.0163 50.3924 29.9097 49.9364 30.1799 49.6736L46.2028 34.0951C46.4824 33.8233 46.9517 33.9619 47.0387 34.342L52.1649 56.7356C52.2515 57.1136 51.8933 57.442 51.5242 57.3231L30.3751 50.508ZM62.3988 17.4703C62.2382 17.4185 62.1145 17.2891 62.0699 17.1263L55.5137 -6.83282C55.4134 -7.19958 55.7429 -7.53971 56.1127 -7.45099L81.1375 -1.44634C81.3222 -1.40202 81.4658 -1.25686 81.5082 -1.07171L87.4164 24.738C87.5029 25.1161 87.1448 25.4444 86.7757 25.3255L62.3988 17.4703Z" fill="url(#paint0_linear_221_4636)" stroke="url(#paint1_linear_221_4636)"></path>
  <defs>
    <linearGradient id="paint0_linear_221_4636" x1="42.57" y1="14.145" x2="114.206" y2="77.3637" gradientUnits="userSpaceOnUse">
      <stop stop-color="#AF5BF9"></stop>
      <stop offset="1" stop-color="#557AE9"></stop>
    </linearGradient>
    <linearGradient id="paint1_linear_221_4636" x1="42.57" y1="14.145" x2="114.206" y2="77.3637" gradientUnits="userSpaceOnUse">
      <stop stop-color="#AF5BF9"></stop>
      <stop offset="1" stop-color="#557AE9"></stop>
    </linearGradient>
  </defs>
</svg>
